<svg width="491" height="503" viewBox="0 0 491 503" fill="none" xmlns="http://www.w3.org/2000/svg">
<rect x="81.1841" y="166.333" width="232.395" height="232.395" rx="20" transform="rotate(-45.7032 81.1841 166.333)" fill="#0C4E47"/>
<path d="M30.548 442.632V364.872H41.396V398.472H61.364V364.872H72.212V442.632H61.364V406.248H41.396V442.632H30.548ZM84.9365 442.632V364.872H95.5925V442.632H84.9365ZM108.173 442.632V364.872H119.021V401.544L136.877 364.872H146.957L131.597 399.144L149.453 442.632H138.893L124.013 406.152L119.021 415.176V442.632H108.173ZM155.704 442.632V364.872H185.848V372.936H166.552V398.664H182.2V406.344H166.552V434.856H186.04V442.632H155.704ZM194.798 442.632V364.872H205.646V398.472H225.614V364.872H236.462V442.632H225.614V406.248H205.646V442.632H194.798ZM248.611 442.632V364.872H278.755V372.936H259.459V398.664H275.107V406.344H259.459V434.856H278.947V442.632H248.611ZM283.48 442.632L299.992 364.872H310.456L327.064 442.632H316.792L313.24 423.048H297.4L293.656 442.632H283.48ZM298.84 415.272H311.8L305.272 380.232L298.84 415.272ZM345.772 442.632L328.396 364.872H338.572L350.859 422.184L362.572 364.872H372.46L355.276 442.632H345.772ZM380.704 442.632V364.872H410.848V372.936H391.552V398.664H407.2V406.344H391.552V434.856H411.04V442.632H380.704ZM419.798 442.632V364.872H427.19L449.27 416.52V364.872H458.294V442.632H451.382L429.014 389.544V442.632H419.798Z" fill="#365956"/>
<path d="M259.032 209.824C259.032 211.275 254.723 212 246.104 212C237.485 212 233.176 211.275 233.176 209.824V180.384H215.256V209.824C215.256 211.275 210.947 212 202.328 212C193.709 212 189.4 211.275 189.4 209.824V124.96C189.4 123.168 193.709 122.272 202.328 122.272C210.947 122.272 215.256 123.168 215.256 124.96V155.04H233.176V125.216C233.176 124.021 235.309 123.168 239.576 122.656C241.795 122.485 243.971 122.4 246.104 122.4L252.632 122.656C256.899 123.168 259.032 124.021 259.032 125.216V209.824Z" fill="white"/>
</svg>
